<?xml version="1.0" encoding="UTF-8" standalone="no"?>
<!-- Created with Fritzing (http://www.fritzing.org/) -->

<svg
   xmlns:dc="http://purl.org/dc/elements/1.1/"
   xmlns:cc="http://creativecommons.org/ns#"
   xmlns:rdf="http://www.w3.org/1999/02/22-rdf-syntax-ns#"
   xmlns:svg="http://www.w3.org/2000/svg"
   xmlns="http://www.w3.org/2000/svg"
   xmlns:sodipodi="http://sodipodi.sourceforge.net/DTD/sodipodi-0.dtd"
   xmlns:inkscape="http://www.inkscape.org/namespaces/inkscape"
   width="162.22008"
   x="0in"
   version="1.2"
   y="0in"
   height="239.10387"
   viewBox="0 0 129.77606 191.28292"
   id="svg2983"
   inkscape:version="0.48.2 r9819"
   sodipodi:docname="AudioModule_schematic.svg">
  <metadata
     id="metadata3114">
    <rdf:RDF>
      <cc:Work
         rdf:about="">
        <dc:format>image/svg+xml</dc:format>
        <dc:type
           rdf:resource="http://purl.org/dc/dcmitype/StillImage" />
      </cc:Work>
    </rdf:RDF>
  </metadata>
  <defs
     id="defs3112" />
  <sodipodi:namedview
     pagecolor="#ffffff"
     bordercolor="#666666"
     borderopacity="1"
     objecttolerance="10"
     gridtolerance="10"
     guidetolerance="10"
     inkscape:pageopacity="0"
     inkscape:pageshadow="2"
     inkscape:window-width="1920"
     inkscape:window-height="996"
     id="namedview3110"
     showgrid="false"
     fit-margin-top="0"
     fit-margin-left="0"
     fit-margin-right="0"
     fit-margin-bottom="0"
     inkscape:zoom="1.7124835"
     inkscape:cx="145.58493"
     inkscape:cy="131.5708"
     inkscape:window-x="-8"
     inkscape:window-y="-8"
     inkscape:window-maximized="1"
     inkscape:current-layer="text3271" />
  <rect
     width="84.959999"
     x="22.779284"
     y="1.1343122"
     height="189.02357"
     id="rect3037"
     style="fill:none;stroke:#000000;stroke-width:2.27818775;stroke-linecap:round;stroke-linejoin:round" />
  <text
     x="64.899284"
     y="52.637882"
     id="label"
     font-size="16.92"
     style="font-size:16.92000008px;text-anchor:middle;fill:#000000;stroke:none;font-family:DroidSans" />
  <line
     y1="41.837883"
     x1="1.1792839"
     y2="41.837883"
     x2="21.699284"
     id="line3040"
     style="fill:none;stroke:#000000;stroke-width:2.16000009;stroke-linecap:round;stroke-linejoin:round" />
  <rect
     width="21.6"
     x="0.099283807"
     y="40.757881"
     height="2.1600001"
     id="connector0pin"
     style="fill:none;stroke:none" />
  <line
     y1="41.837883"
     x1="108.09928"
     y2="41.837883"
     x2="128.61929"
     id="line3045"
     style="fill:none;stroke:#000000;stroke-width:2.16000009;stroke-linecap:round;stroke-linejoin:round" />
  <rect
     width="21.6"
     x="108.09928"
     y="40.757881"
     height="2.1600001"
     id="connector13pin"
     style="fill:none;stroke:none" />
  <line
     y1="63.077881"
     x1="1.1792839"
     y2="63.077881"
     x2="21.699284"
     id="line3050"
     style="fill:none;stroke:#000000;stroke-width:2.16000009;stroke-linecap:round;stroke-linejoin:round" />
  <rect
     width="21.6"
     x="0.099283807"
     y="61.997883"
     height="2.1600001"
     id="connector1pin"
     style="fill:none;stroke:none" />
  <line
     y1="63.077881"
     x1="108.09928"
     y2="63.077881"
     x2="128.61929"
     id="line3055"
     style="fill:none;stroke:#000000;stroke-width:2.16000009;stroke-linecap:round;stroke-linejoin:round" />
  <rect
     width="21.6"
     x="108.09928"
     y="61.997883"
     height="2.1600001"
     id="connector12pin"
     style="fill:none;stroke:none" />
  <line
     y1="84.317886"
     x1="1.1792839"
     y2="84.317886"
     x2="21.699284"
     id="line3060"
     style="fill:none;stroke:#000000;stroke-width:2.16000009;stroke-linecap:round;stroke-linejoin:round" />
  <rect
     width="21.6"
     x="0.099283807"
     y="83.237885"
     height="2.1600001"
     id="connector2pin"
     style="fill:none;stroke:none" />
  <line
     y1="84.317886"
     x1="108.09928"
     y2="84.317886"
     x2="128.61929"
     id="line3065"
     style="fill:none;stroke:#000000;stroke-width:2.16000009;stroke-linecap:round;stroke-linejoin:round" />
  <rect
     width="21.6"
     x="108.09928"
     y="83.237885"
     height="2.1600001"
     id="connector11pin"
     style="fill:none;stroke:none" />
  <line
     y1="105.55788"
     x1="1.1792839"
     y2="105.55788"
     x2="21.699284"
     id="line3070"
     style="fill:none;stroke:#000000;stroke-width:2.16000009;stroke-linecap:round;stroke-linejoin:round" />
  <rect
     width="21.6"
     x="0.099283807"
     y="104.47788"
     height="2.1600001"
     id="connector3pin"
     style="fill:none;stroke:none" />
  <line
     y1="105.55788"
     x1="108.09928"
     y2="105.55788"
     x2="128.61929"
     id="line3075"
     style="fill:none;stroke:#000000;stroke-width:2.16000009;stroke-linecap:round;stroke-linejoin:round" />
  <rect
     width="21.6"
     x="108.09928"
     y="104.47788"
     height="2.1600001"
     id="connector10pin"
     style="fill:none;stroke:none" />
  <line
     y1="126.79788"
     x1="1.1792839"
     y2="126.79788"
     x2="21.699284"
     id="line3080"
     style="fill:none;stroke:#000000;stroke-width:2.16000009;stroke-linecap:round;stroke-linejoin:round" />
  <rect
     width="21.6"
     x="0.099283807"
     y="125.71788"
     height="2.1600001"
     id="connector4pin"
     style="fill:none;stroke:none" />
  <line
     y1="126.79788"
     x1="108.09928"
     y2="126.79788"
     x2="128.61929"
     id="line3085"
     style="fill:none;stroke:#000000;stroke-width:2.16000009;stroke-linecap:round;stroke-linejoin:round" />
  <rect
     width="21.6"
     x="108.09928"
     y="125.71788"
     height="2.1600001"
     id="connector9pin"
     style="fill:none;stroke:none" />
  <line
     y1="148.03789"
     x1="1.1792839"
     y2="148.03789"
     x2="21.699284"
     id="line3090"
     style="fill:none;stroke:#000000;stroke-width:2.16000009;stroke-linecap:round;stroke-linejoin:round" />
  <rect
     width="21.6"
     x="0.099283807"
     y="146.95789"
     height="2.1600001"
     id="connector5pin"
     style="fill:none;stroke:none" />
  <line
     y1="148.03789"
     x1="108.09928"
     y2="148.03789"
     x2="128.61929"
     id="line3095"
     style="fill:none;stroke:#000000;stroke-width:2.16000009;stroke-linecap:round;stroke-linejoin:round" />
  <rect
     width="21.6"
     x="108.09928"
     y="146.95789"
     height="2.1600001"
     id="connector8pin"
     style="fill:none;stroke:none" />
  <line
     y1="169.27788"
     x1="1.1792839"
     y2="169.27788"
     x2="21.699284"
     id="line3100"
     style="fill:none;stroke:#000000;stroke-width:2.16000009;stroke-linecap:round;stroke-linejoin:round" />
  <rect
     width="21.6"
     x="0.099283807"
     y="168.19788"
     height="2.1600001"
     id="connector6pin"
     style="fill:none;stroke:none" />
  <line
     y1="169.27788"
     x1="108.09928"
     y2="169.27788"
     x2="128.61929"
     id="line3105"
     style="fill:none;stroke:#000000;stroke-width:2.16000009;stroke-linecap:round;stroke-linejoin:round" />
  <rect
     width="21.6"
     x="108.09928"
     y="168.19788"
     height="2.1600001"
     id="connector7pin"
     style="fill:none;stroke:none" />
  <g
     style="font-size:12.80000019px;font-style:normal;font-variant:normal;font-weight:normal;font-stretch:normal;text-align:center;line-height:125%;letter-spacing:0px;word-spacing:0px;text-anchor:middle;fill:#000000;fill-opacity:1;stroke:none;font-family:Droid Sans;-inkscape-font-specification:Droid Sans"
     id="text3233">
    <path
       d="m 54.778032,15.962149 -1,-2.83125 -3.40625,0 -1.0125,2.83125 -1.175,0 3.35625,-9.1750005 1.0625,0 3.3625,9.1750005 z m -1.36875,-3.8625 -0.925,-2.6500004 c -0.02501,-0.074993 -0.05521,-0.16666 -0.09063,-0.275 -0.03542,-0.1083265 -0.07188,-0.224993 -0.109375,-0.35 -0.0375,-0.1249928 -0.075,-0.255201 -0.1125,-0.390625 -0.0375,-0.1354091 -0.07292,-0.2677006 -0.10625,-0.3968751 -0.02917,0.1291745 -0.0625,0.2625077 -0.1,0.4000001 -0.0375,0.1375073 -0.075,0.2697989 -0.1125,0.396875 -0.0375,0.1270903 -0.07396,0.2437568 -0.109375,0.35 -0.03542,0.1062566 -0.06563,0.1947982 -0.09062,0.265625 l -0.90625,2.6500004 z"
       style=""
       id="path3428" />
    <path
       d="m 61.490532,15.962149 -0.16875,-0.91875 -0.0625,0 c -0.104172,0.179167 -0.22813,0.334375 -0.371875,0.465625 -0.143755,0.13125 -0.301046,0.239583 -0.471875,0.325 -0.170838,0.08542 -0.352088,0.148958 -0.54375,0.190625 -0.191671,0.04167 -0.387504,0.0625 -0.5875,0.0625 -0.37917,0 -0.712503,-0.04792 -1,-0.14375 -0.287502,-0.09583 -0.527085,-0.245833 -0.71875,-0.45 -0.191668,-0.204166 -0.33646,-0.464583 -0.434375,-0.78125 -0.09792,-0.316665 -0.146876,-0.693748 -0.146875,-1.13125 l 0,-4.4812504 1.1375,0 0,4.4187504 c -2e-6,0.541668 0.110414,0.947918 0.33125,1.21875 0.22083,0.270834 0.562497,0.40625 1.025,0.40625 0.337496,0 0.620829,-0.05417 0.85,-0.1625 0.229162,-0.108333 0.413537,-0.267707 0.553125,-0.478125 0.139578,-0.210415 0.239578,-0.46979 0.3,-0.778125 0.06041,-0.308331 0.09062,-0.662497 0.09063,-1.0625 l 0,-3.5625004 1.1375,0 0,6.8625004 z"
       style=""
       id="path3430" />
    <path
       d="m 68.834283,15.043399 -0.05,0 c -0.09167,0.141667 -0.198964,0.276042 -0.321875,0.403125 -0.122922,0.127083 -0.264589,0.238542 -0.425,0.334375 -0.160422,0.09583 -0.34063,0.170833 -0.540626,0.225 -0.200003,0.05417 -0.425003,0.08125 -0.675,0.08125 -0.387502,0 -0.741669,-0.075 -1.0625,-0.225 -0.320835,-0.15 -0.595835,-0.373958 -0.825,-0.671875 -0.229167,-0.297916 -0.406251,-0.667707 -0.53125,-1.109375 -0.125,-0.441665 -0.1875,-0.954164 -0.1875,-1.5375 0,-0.587496 0.0625,-1.103121 0.1875,-1.546875 0.124999,-0.443745 0.302083,-0.81562 0.53125,-1.1156254 0.229165,-0.2999936 0.504165,-0.5260351 0.825,-0.678125 0.320831,-0.1520765 0.674998,-0.2281181 1.0625,-0.228125 0.24583,6.9e-6 0.468747,0.02709 0.66875,0.08125 0.199996,0.054173 0.380204,0.1270901 0.540626,0.21875 0.160411,0.091673 0.30312,0.1979231 0.428125,0.31875 0.124994,0.1208396 0.233328,0.2479228 0.325,0.38125 l 0.075,0 c -0.01251,-0.1416606 -0.02501,-0.2770771 -0.0375,-0.40625 -0.0083,-0.1083269 -0.01667,-0.2197851 -0.025,-0.334375 -0.0083,-0.1145765 -0.01251,-0.2052014 -0.0125,-0.271875 l 0,-2.7250001 1.1375,0 0,9.7250005 -0.91875,0 z m -1.793751,0.1 c 0.316663,0 0.584371,-0.04792 0.803125,-0.14375 0.218746,-0.09583 0.395829,-0.241666 0.531251,-0.4375 0.135411,-0.195832 0.235411,-0.440624 0.3,-0.734375 0.06458,-0.293748 0.101036,-0.636456 0.109375,-1.028125 l 0,-0.25625 c -6e-6,-0.42083 -0.02813,-0.794788 -0.08438,-1.121875 -0.05626,-0.327079 -0.152089,-0.602079 -0.2875,-0.825 -0.135422,-0.222911 -0.31563,-0.391661 -0.540626,-0.50625 -0.225004,-0.1145778 -0.506253,-0.1718694 -0.84375,-0.1718754 -0.562502,6e-6 -0.976044,0.2270894 -1.240625,0.6812504 -0.264585,0.454171 -0.396876,1.106254 -0.396875,1.95625 -10e-7,0.870835 0.13229,1.519793 0.396875,1.946875 0.264581,0.427084 0.682289,0.640625 1.253125,0.640625 z"
       style=""
       id="path3432" />
    <path
       d="m 73.234282,15.962149 -1.1375,0 0,-6.8625004 1.1375,0 z m -1.225,-8.7187505 c -10e-7,-0.249991 0.06354,-0.4312408 0.190625,-0.54375 0.127082,-0.1124906 0.284374,-0.1687405 0.471875,-0.16875 0.09167,9.5e-6 0.178124,0.013551 0.259375,0.040625 0.08125,0.027093 0.152082,0.069801 0.2125,0.128125 0.06041,0.058343 0.108332,0.1323008 0.14375,0.221875 0.03542,0.089592 0.05312,0.1968839 0.05312,0.321875 -2e-6,0.2416752 -0.06563,0.4218833 -0.196875,0.540625 -0.131252,0.1187581 -0.288543,0.178133 -0.471875,0.178125 -0.187501,8e-6 -0.344793,-0.058325 -0.471875,-0.175 -0.127084,-0.1166583 -0.190626,-0.2979082 -0.190625,-0.54375 z"
       style=""
       id="path3434" />
    <path
       d="m 81.015531,12.518399 c -6e-6,0.570836 -0.0698,1.078127 -0.209375,1.521875 -0.139589,0.443751 -0.339589,0.816667 -0.6,1.11875 -0.260422,0.302083 -0.576047,0.532292 -0.946875,0.690625 -0.370838,0.158333 -0.787504,0.2375 -1.25,0.2375 -0.42917,0 -0.825003,-0.07917 -1.1875,-0.2375 -0.362502,-0.158333 -0.676043,-0.388542 -0.940625,-0.690625 -0.264584,-0.302083 -0.470834,-0.674999 -0.61875,-1.11875 -0.147917,-0.443748 -0.221875,-0.951039 -0.221875,-1.521875 0,-0.566663 0.06979,-1.069788 0.209375,-1.509375 0.139583,-0.439578 0.338541,-0.810411 0.596875,-1.1125004 0.258332,-0.302077 0.573957,-0.5312434 0.946875,-0.6875 0.372914,-0.1562431 0.790622,-0.2343681 1.253125,-0.234375 0.429163,6.9e-6 0.824996,0.078132 1.1875,0.234375 0.362495,0.1562566 0.676036,0.385423 0.940625,0.6875 0.264578,0.3020894 0.470827,0.6729224 0.61875,1.1125004 0.14791,0.439587 0.221869,0.942712 0.221875,1.509375 z m -4.8,0 c -2e-6,0.870836 0.142707,1.526043 0.428125,1.965625 0.285414,0.439584 0.748956,0.659375 1.390625,0.659375 0.641663,0 1.103121,-0.219791 1.384375,-0.659375 0.281245,-0.439582 0.42187,-1.094789 0.421875,-1.965625 -5e-6,-0.870829 -0.142713,-1.52187 -0.428125,-1.953125 -0.285421,-0.431245 -0.748962,-0.6468694 -1.390625,-0.6468754 -0.641669,6e-6 -1.103127,0.2156304 -1.384375,0.6468754 -0.281252,0.431255 -0.421877,1.082296 -0.421875,1.953125 z"
       style=""
       id="path3436" />
    <path
       d="m 48.090532,31.962149 -2.76875,-8 -0.05,0 c 0.025,0.308341 0.04583,0.614591 0.0625,0.91875 0.01666,0.262507 0.03021,0.538548 0.04062,0.828125 0.01041,0.289589 0.01562,0.553131 0.01563,0.790625 l 0,5.4625 -1.075,0 0,-9.1375 1.725,0 2.575,7.45 0.0375,0 2.5875,-7.45 1.725,0 0,9.1375 -1.1625,0 0,-5.54375 c -9e-6,-0.216661 0.0042,-0.464578 0.0125,-0.74375 0.0083,-0.27916 0.01874,-0.545827 0.03125,-0.8 0.01666,-0.295826 0.03124,-0.595826 0.04375,-0.9 l -0.05,0 -2.79375,7.9875 z"
       style=""
       id="path3438" />
    <path
       d="m 60.903032,28.518399 c -6e-6,0.570836 -0.0698,1.078127 -0.209375,1.521875 -0.139589,0.443751 -0.339589,0.816668 -0.6,1.11875 -0.260422,0.302084 -0.576047,0.532292 -0.946875,0.690625 -0.370838,0.158333 -0.787504,0.2375 -1.25,0.2375 -0.42917,0 -0.825003,-0.07917 -1.1875,-0.2375 -0.362502,-0.158333 -0.676043,-0.388541 -0.940625,-0.690625 -0.264584,-0.302082 -0.470834,-0.674999 -0.61875,-1.11875 -0.147917,-0.443748 -0.221876,-0.951039 -0.221875,-1.521875 -1e-6,-0.566663 0.06979,-1.069787 0.209375,-1.509375 0.139582,-0.439578 0.338541,-0.810411 0.596875,-1.1125 0.258332,-0.302077 0.573956,-0.531244 0.946875,-0.6875 0.372914,-0.156243 0.790622,-0.234368 1.253125,-0.234375 0.429163,7e-6 0.824996,0.07813 1.1875,0.234375 0.362495,0.156256 0.676036,0.385423 0.940625,0.6875 0.264577,0.302089 0.470827,0.672922 0.61875,1.1125 0.14791,0.439588 0.221869,0.942712 0.221875,1.509375 z m -4.8,0 c -2e-6,0.870836 0.142707,1.526043 0.428125,1.965625 0.285414,0.439584 0.748955,0.659376 1.390625,0.659375 0.641663,1e-6 1.10312,-0.219791 1.384375,-0.659375 0.281245,-0.439582 0.42187,-1.094789 0.421875,-1.965625 -5e-6,-0.870829 -0.142713,-1.52187 -0.428125,-1.953125 -0.285421,-0.431244 -0.748962,-0.646869 -1.390625,-0.646875 -0.641669,6e-6 -1.103127,0.215631 -1.384375,0.646875 -0.281252,0.431255 -0.421877,1.082296 -0.421875,1.953125 z"
       style=""
       id="path3440" />
    <path
       d="m 66.946783,31.043399 -0.05,0 c -0.09167,0.141667 -0.198964,0.276042 -0.321875,0.403125 -0.122922,0.127084 -0.264588,0.238542 -0.425,0.334375 -0.160421,0.09583 -0.340629,0.170833 -0.540625,0.225 -0.200004,0.05417 -0.425004,0.08125 -0.675,0.08125 -0.387503,0 -0.741669,-0.075 -1.0625,-0.225 -0.320835,-0.15 -0.595835,-0.373958 -0.825,-0.671875 -0.229168,-0.297916 -0.406251,-0.667707 -0.53125,-1.109375 -0.125001,-0.441664 -0.187501,-0.954164 -0.1875,-1.5375 -10e-7,-0.587496 0.0625,-1.103121 0.1875,-1.546875 0.124999,-0.443745 0.302082,-0.815619 0.53125,-1.115625 0.229165,-0.299994 0.504165,-0.526035 0.825,-0.678125 0.320831,-0.152077 0.674997,-0.228118 1.0625,-0.228125 0.24583,7e-6 0.468746,0.02709 0.66875,0.08125 0.199996,0.05417 0.380204,0.12709 0.540625,0.21875 0.160412,0.09167 0.30312,0.197923 0.428125,0.31875 0.124995,0.120839 0.233328,0.247923 0.325,0.38125 l 0.075,0 c -0.01251,-0.141661 -0.02501,-0.277077 -0.0375,-0.40625 -0.0083,-0.108327 -0.01667,-0.219785 -0.025,-0.334375 -0.0083,-0.114577 -0.01251,-0.205202 -0.0125,-0.271875 l 0,-2.725 1.1375,0 0,9.725 -0.91875,0 z m -1.79375,0.1 c 0.316663,1e-6 0.584371,-0.04792 0.803125,-0.14375 0.218745,-0.09583 0.395828,-0.241666 0.53125,-0.4375 0.135411,-0.195832 0.235411,-0.440623 0.3,-0.734375 0.06458,-0.293748 0.101036,-0.636456 0.109375,-1.028125 l 0,-0.25625 c -5e-6,-0.42083 -0.02813,-0.794788 -0.08437,-1.121875 -0.05626,-0.327079 -0.152089,-0.602078 -0.2875,-0.825 -0.135422,-0.222911 -0.31563,-0.391661 -0.540625,-0.50625 -0.225004,-0.114578 -0.506254,-0.171869 -0.84375,-0.171875 -0.562503,6e-6 -0.976044,0.227089 -1.240625,0.68125 -0.264586,0.454171 -0.396877,1.106254 -0.396875,1.95625 -2e-6,0.870836 0.132289,1.519793 0.396875,1.946875 0.264581,0.427084 0.682288,0.640626 1.253125,0.640625 z"
       style=""
       id="path3442" />
    <path
       d="m 74.653033,31.962149 -0.16875,-0.91875 -0.0625,0 c -0.104172,0.179167 -0.22813,0.334375 -0.371875,0.465625 -0.143755,0.13125 -0.301046,0.239583 -0.471875,0.325 -0.170838,0.08542 -0.352088,0.148958 -0.54375,0.190625 -0.191671,0.04167 -0.387504,0.0625 -0.5875,0.0625 -0.37917,0 -0.712503,-0.04792 -1,-0.14375 -0.287502,-0.09583 -0.527085,-0.245833 -0.71875,-0.45 -0.191668,-0.204166 -0.33646,-0.464583 -0.434375,-0.78125 -0.09792,-0.316665 -0.146876,-0.693748 -0.146875,-1.13125 l 0,-4.48125 1.1375,0 0,4.41875 c -2e-6,0.541668 0.110414,0.947918 0.33125,1.21875 0.22083,0.270834 0.562497,0.406251 1.025,0.40625 0.337496,1e-6 0.620829,-0.05417 0.85,-0.1625 0.229162,-0.108332 0.413537,-0.267707 0.553125,-0.478125 0.139578,-0.210415 0.239578,-0.46979 0.3,-0.778125 0.06041,-0.308331 0.09062,-0.662497 0.09062,-1.0625 l 0,-3.5625 1.1375,0 0,6.8625 z"
       style=""
       id="path3444" />
    <path
       d="m 78.896784,31.962149 -1.1375,0 0,-9.725 1.1375,0 z"
       style=""
       id="path3446" />
    <path
       d="m 83.796781,32.087149 c -0.458337,0 -0.877086,-0.07708 -1.25625,-0.23125 -0.379169,-0.154167 -0.70521,-0.379166 -0.978125,-0.675 -0.272918,-0.295832 -0.484376,-0.662499 -0.634375,-1.1 -0.150001,-0.437498 -0.225001,-0.937497 -0.225,-1.5 -10e-7,-0.566663 0.06875,-1.072912 0.20625,-1.51875 0.137499,-0.445828 0.331249,-0.823953 0.58125,-1.134375 0.249998,-0.310411 0.548956,-0.546869 0.896875,-0.709375 0.347914,-0.162493 0.732288,-0.243743 1.153125,-0.24375 0.412496,7e-6 0.783329,0.07397 1.1125,0.221875 0.329162,0.147923 0.608328,0.356256 0.8375,0.625 0.229161,0.268756 0.405202,0.591672 0.528125,0.96875 0.12291,0.377088 0.184369,0.794796 0.184375,1.253125 l 0,0.70625 -4.325,0 c 0.02083,0.804169 0.190623,1.395835 0.509375,1.775 0.318747,0.379168 0.792705,0.568751 1.421875,0.56875 0.212496,10e-7 0.409371,-0.01042 0.590625,-0.03125 0.181245,-0.02083 0.356245,-0.05104 0.525,-0.09063 0.168745,-0.03958 0.332286,-0.08958 0.490625,-0.15 0.158328,-0.06042 0.318744,-0.128124 0.48125,-0.203125 l 0,1.0125 c -0.166672,0.07917 -0.330214,0.147917 -0.490625,0.20625 -0.160422,0.05833 -0.325005,0.10625 -0.49375,0.14375 -0.168755,0.0375 -0.343755,0.06458 -0.525,0.08125 -0.181254,0.01667 -0.378129,0.025 -0.590625,0.025 z m -0.28125,-6.16875 c -0.475003,6e-6 -0.851044,0.162506 -1.128125,0.4875 -0.277086,0.325005 -0.438544,0.797921 -0.484375,1.41875 l 3.075,0 c -5e-6,-0.283329 -0.02813,-0.542704 -0.08438,-0.778125 -0.05625,-0.235412 -0.143755,-0.436453 -0.2625,-0.603125 -0.118755,-0.166661 -0.269796,-0.295828 -0.453125,-0.3875 -0.183337,-0.09166 -0.404171,-0.137494 -0.6625,-0.1375 z"
       style=""
       id="path3448" />
  </g>
  <g
     style="font-size:7.19999981px;font-style:normal;font-variant:normal;font-weight:normal;font-stretch:normal;line-height:125%;letter-spacing:0px;word-spacing:0px;fill:#000000;fill-opacity:1;stroke:none;font-family:Droid Sans;-inkscape-font-specification:Droid Sans"
     id="text3239">
    <path
       d="m 30.573788,40.417571 c -5e-6,0.28438 -0.04297,0.557817 -0.128906,0.820313 -0.08594,0.262503 -0.227349,0.494534 -0.424219,0.696093 -0.196879,0.201566 -0.457035,0.362503 -0.780469,0.482813 -0.323441,0.120315 -0.722659,0.180471 -1.197656,0.180469 l -0.703125,0 0,2.667187 -0.871875,0 0,-6.853125 1.696875,0 c 0.418747,7e-6 0.779684,0.04454 1.082812,0.133594 0.303121,0.08907 0.553121,0.218756 0.75,0.389062 0.196871,0.170319 0.342183,0.380475 0.435938,0.630469 0.09374,0.250005 0.14062,0.53438 0.140625,0.853125 z m -3.234375,1.439063 0.604687,0 c 0.290623,3e-6 0.544529,-0.025 0.761719,-0.075 0.217184,-0.05 0.396872,-0.130466 0.539063,-0.241407 0.142183,-0.110933 0.249214,-0.254683 0.321093,-0.43125 0.07187,-0.176558 0.107809,-0.391401 0.107813,-0.644531 -4e-6,-0.443745 -0.128129,-0.772651 -0.384375,-0.986719 -0.256254,-0.214056 -0.656253,-0.321087 -1.2,-0.321093 l -0.75,0 z"
       style="font-size:9.60000038px"
       id="path3419" />
    <path
       d="m 32.870663,42.433196 0,2.83125 -0.871875,0 0,-6.853125 1.66875,0 c 0.831246,7e-6 1.445308,0.160944 1.842187,0.482813 0.396871,0.321881 0.595308,0.80938 0.595313,1.4625 -5e-6,0.271879 -0.03829,0.509379 -0.114844,0.7125 -0.07657,0.203129 -0.17813,0.377347 -0.304687,0.522656 -0.126567,0.145316 -0.271098,0.26641 -0.433594,0.363281 -0.162504,0.09688 -0.329692,0.176566 -0.501563,0.239063 l 1.865625,3.070312 -1.026562,0 -1.645313,-2.83125 z m 0,-0.740625 0.76875,0 c 0.281247,4e-6 0.520309,-0.02734 0.717187,-0.08203 0.196872,-0.05468 0.35859,-0.135934 0.485157,-0.24375 0.126558,-0.107809 0.218746,-0.242184 0.276562,-0.403125 0.05781,-0.160933 0.08671,-0.349214 0.08672,-0.564844 -4e-6,-0.224995 -0.03204,-0.41562 -0.09609,-0.571875 -0.06407,-0.156244 -0.160941,-0.284369 -0.290625,-0.384375 -0.129691,-0.09999 -0.293753,-0.17265 -0.492187,-0.217969 -0.198441,-0.04531 -0.433597,-0.06796 -0.705469,-0.06797 l -0.75,0 z"
       style="font-size:9.60000038px"
       id="path3421" />
    <path
       d="m 41.219101,45.264446 -3.557813,0 0,-6.853125 3.557813,0 0,0.76875 -2.685938,0 0,2.11875 2.507813,0 0,0.759375 -2.507813,0 0,2.4375 2.685938,0 z"
       style="font-size:9.60000038px"
       id="path3423" />
    <path
       d="m 46.314413,38.411321 0.928125,0 -2.292187,6.853125 -0.876563,0 -2.282812,-6.853125 0.923437,0 1.382813,4.345313 c 0.09062,0.284377 0.168747,0.558595 0.234375,0.822656 0.06562,0.264064 0.124997,0.51172 0.178125,0.742969 0.04687,-0.231249 0.106247,-0.478905 0.178125,-0.742969 0.07187,-0.264061 0.156247,-0.547654 0.253125,-0.850781 z"
       style="font-size:9.60000038px"
       id="path3425" />
  </g>
  <g
     style="font-size:7.19999981px;font-style:normal;font-variant:normal;font-weight:normal;font-stretch:normal;line-height:125%;letter-spacing:0px;word-spacing:0px;fill:#000000;fill-opacity:1;stroke:none;font-family:Droid Sans;-inkscape-font-specification:Droid Sans"
     id="text3247">
    <path
       d="m 30.058163,59.651315 0.928125,0 -2.292188,6.853125 -0.876562,0 -2.282813,-6.853125 0.923438,0 1.382812,4.345313 c 0.09062,0.284377 0.168748,0.558595 0.234375,0.822656 0.06562,0.264064 0.124998,0.51172 0.178125,0.742969 0.04687,-0.231249 0.106247,-0.478905 0.178125,-0.742969 0.07187,-0.264061 0.156247,-0.547654 0.253125,-0.850781 z"
       style="font-size:9.60000038px"
       id="path3412" />
    <path
       d="m 34.708163,60.321628 c -0.334378,6e-6 -0.637503,0.06329 -0.909375,0.189843 -0.271878,0.126569 -0.503909,0.3086 -0.696094,0.546094 -0.192189,0.237505 -0.340627,0.526568 -0.445312,0.867188 -0.104689,0.340629 -0.157033,0.725004 -0.157032,1.153125 -10e-7,0.440628 0.04609,0.832034 0.138282,1.174218 0.09219,0.34219 0.230467,0.630471 0.414843,0.864844 0.184373,0.234376 0.414061,0.412501 0.689063,0.534375 0.274997,0.121876 0.596872,0.182813 0.965625,0.182813 0.278121,0 0.542183,-0.02734 0.792188,-0.08203 0.249995,-0.05469 0.49687,-0.117968 0.740625,-0.189844 l 0,0.759375 c -0.121881,0.04687 -0.243755,0.08828 -0.365625,0.124219 -0.12188,0.03594 -0.249224,0.06484 -0.382032,0.08672 -0.132817,0.02187 -0.275004,0.03828 -0.426562,0.04922 -0.151567,0.01094 -0.319535,0.01641 -0.503906,0.01641 -0.512504,0 -0.956253,-0.08438 -1.331251,-0.253125 -0.375001,-0.168749 -0.685157,-0.407812 -0.930468,-0.717187 -0.245314,-0.309374 -0.427345,-0.681249 -0.546094,-1.115625 -0.118751,-0.434373 -0.178126,-0.915622 -0.178125,-1.44375 -1e-6,-0.518746 0.06797,-0.993746 0.203906,-1.425 0.135937,-0.431245 0.335937,-0.801557 0.6,-1.110938 0.264061,-0.309369 0.591404,-0.549993 0.982031,-0.721875 0.390623,-0.171868 0.83906,-0.257806 1.345313,-0.257812 0.337496,6e-6 0.659371,0.03438 0.965625,0.103125 0.306245,0.06876 0.582807,0.168756 0.829688,0.3 l -0.365625,0.73125 c -0.19688,-0.09999 -0.410943,-0.185932 -0.642188,-0.257813 -0.231254,-0.07187 -0.493754,-0.107806 -0.7875,-0.107812 z"
       style="font-size:9.60000038px"
       id="path3414" />
    <path
       d="m 40.501913,60.321628 c -0.334379,6e-6 -0.637503,0.06329 -0.909375,0.189843 -0.271878,0.126569 -0.503909,0.3086 -0.696094,0.546094 -0.192189,0.237505 -0.340627,0.526568 -0.445312,0.867188 -0.10469,0.340629 -0.157033,0.725004 -0.157032,1.153125 -10e-7,0.440628 0.04609,0.832034 0.138282,1.174218 0.09219,0.34219 0.230466,0.630471 0.414843,0.864844 0.184373,0.234376 0.41406,0.412501 0.689063,0.534375 0.274997,0.121876 0.596871,0.182813 0.965625,0.182813 0.278121,0 0.542183,-0.02734 0.792187,-0.08203 0.249996,-0.05469 0.49687,-0.117968 0.740625,-0.189844 l 0,0.759375 c -0.12188,0.04687 -0.243755,0.08828 -0.365625,0.124219 -0.121879,0.03594 -0.249223,0.06484 -0.382031,0.08672 -0.132817,0.02187 -0.275004,0.03828 -0.426562,0.04922 -0.151567,0.01094 -0.319535,0.01641 -0.503907,0.01641 -0.512503,0 -0.956252,-0.08438 -1.33125,-0.253125 -0.375002,-0.168749 -0.685158,-0.407812 -0.930469,-0.717187 -0.245313,-0.309374 -0.427344,-0.681249 -0.546093,-1.115625 -0.118751,-0.434373 -0.178126,-0.915622 -0.178125,-1.44375 -10e-7,-0.518746 0.06797,-0.993746 0.203906,-1.425 0.135937,-0.431245 0.335936,-0.801557 0.6,-1.110938 0.264061,-0.309369 0.591404,-0.549993 0.982031,-0.721875 0.390623,-0.171868 0.83906,-0.257806 1.345313,-0.257812 0.337496,6e-6 0.65937,0.03438 0.965625,0.103125 0.306245,0.06876 0.582807,0.168756 0.829687,0.3 l -0.365625,0.73125 c -0.19688,-0.09999 -0.410942,-0.185932 -0.642187,-0.257813 -0.231254,-0.07187 -0.493754,-0.107806 -0.7875,-0.107812 z"
       style="font-size:9.60000038px"
       id="path3416" />
  </g>
  <g
     style="font-size:7.19999981px;font-style:normal;font-variant:normal;font-weight:normal;font-stretch:normal;line-height:125%;letter-spacing:0px;word-spacing:0px;fill:#000000;fill-opacity:1;stroke:none;font-family:Droid Sans;-inkscape-font-specification:Droid Sans"
     id="text3251">
    <path
       d="m 31.515975,84.252258 c -6e-6,0.578128 -0.07501,1.085159 -0.225,1.521094 -0.150005,0.435939 -0.367192,0.800001 -0.651562,1.092188 -0.28438,0.292188 -0.633598,0.511719 -1.047656,0.658593 -0.414067,0.146875 -0.883597,0.220313 -1.408594,0.220313 l -1.715625,0 0,-6.853125 1.907812,0 c 0.478122,6e-6 0.910934,0.07188 1.298438,0.215625 0.387495,0.143756 0.717183,0.357037 0.989062,0.639843 0.27187,0.282819 0.482026,0.633599 0.630469,1.052344 0.148432,0.418755 0.22265,0.903129 0.222656,1.453125 z m -0.923437,0.02813 c -5e-6,-0.456246 -0.05157,-0.850777 -0.154688,-1.183594 -0.103129,-0.332807 -0.253129,-0.607026 -0.45,-0.822656 -0.196879,-0.215619 -0.439066,-0.375775 -0.726562,-0.480469 -0.287504,-0.104681 -0.614066,-0.157025 -0.979688,-0.157031 l -0.942187,0 0,5.357813 0.759375,0 c 0.824996,10e-7 1.446871,-0.228124 1.865625,-0.684375 0.418745,-0.456248 0.62812,-1.13281 0.628125,-2.029688 z"
       style="font-size:9.60000038px"
       id="path3403" />
    <path
       d="m 35.814413,81.561633 c -0.334378,6e-6 -0.637503,0.06329 -0.909375,0.189844 -0.271877,0.126568 -0.503908,0.308599 -0.696094,0.546094 -0.192189,0.237505 -0.340626,0.526567 -0.445312,0.867187 -0.104689,0.340629 -0.157033,0.725004 -0.157031,1.153125 -2e-6,0.440628 0.04609,0.832034 0.138281,1.174219 0.09219,0.342189 0.230467,0.63047 0.414844,0.864844 0.184373,0.234376 0.41406,0.412501 0.689062,0.534375 0.274997,0.121876 0.596872,0.182813 0.965625,0.182812 0.278121,10e-7 0.542184,-0.02734 0.792188,-0.08203 0.249995,-0.05469 0.49687,-0.117968 0.740625,-0.189844 l 0,0.759375 c -0.12188,0.04687 -0.243755,0.08828 -0.365625,0.124219 -0.12188,0.03594 -0.249224,0.06484 -0.382031,0.08672 -0.132817,0.02187 -0.275005,0.03828 -0.426563,0.04922 -0.151566,0.01094 -0.319535,0.01641 -0.503906,0.01641 -0.512503,0 -0.956253,-0.08437 -1.33125,-0.253125 -0.375002,-0.16875 -0.685158,-0.407812 -0.930469,-0.717188 -0.245314,-0.309374 -0.427345,-0.681248 -0.546094,-1.115625 -0.11875,-0.434372 -0.178125,-0.915622 -0.178125,-1.44375 0,-0.518746 0.06797,-0.993745 0.203906,-1.425 0.135937,-0.431245 0.335937,-0.801557 0.6,-1.110937 0.264061,-0.309369 0.591405,-0.549994 0.982032,-0.721875 0.390622,-0.171869 0.839059,-0.257806 1.345312,-0.257813 0.337496,7e-6 0.659371,0.03438 0.965625,0.103125 0.306245,0.06876 0.582808,0.168757 0.829688,0.3 l -0.365625,0.73125 c -0.19688,-0.09999 -0.410942,-0.185931 -0.642188,-0.257812 -0.231254,-0.07187 -0.493754,-0.107807 -0.7875,-0.107813 z"
       style="font-size:9.60000038px"
       id="path3405" />
    <path
       d="m 38.823788,87.744446 0,-6.853125 0.871876,0 0,6.075 2.685937,0 0,0.778125 z"
       style="font-size:9.60000038px"
       id="path3407" />
    <path
       d="m 48.175352,87.744446 -0.989063,0 -2.114063,-3.271875 -0.651562,0.534375 0,2.7375 -0.871875,0 0,-6.853125 0.871875,0 0,3.426562 0.567187,-0.7875 2.118751,-2.639062 0.979687,0 -2.4375,2.985937 z"
       style="font-size:9.60000038px"
       id="path3409" />
  </g>
  <g
     style="font-size:7.19999981px;font-style:normal;font-variant:normal;font-weight:normal;font-stretch:normal;line-height:125%;letter-spacing:0px;word-spacing:0px;fill:#000000;fill-opacity:1;stroke:none;font-family:Droid Sans;-inkscape-font-specification:Droid Sans"
     id="text3255">
    <path
       d="m 31.515975,105.49226 c -6e-6,0.57812 -0.07501,1.08515 -0.225,1.52109 -0.150005,0.43594 -0.367192,0.8 -0.651562,1.09219 -0.28438,0.29219 -0.633598,0.51172 -1.047656,0.65859 -0.414067,0.14688 -0.883597,0.22031 -1.408594,0.22031 l -1.715625,0 0,-6.85312 1.907812,0 c 0.478122,1e-5 0.910934,0.0719 1.298438,0.21562 0.387495,0.14376 0.717183,0.35704 0.989062,0.63985 0.27187,0.28282 0.482026,0.6336 0.630469,1.05234 0.148432,0.41876 0.22265,0.90313 0.222656,1.45313 z m -0.923437,0.0281 c -5e-6,-0.45625 -0.05157,-0.85078 -0.154688,-1.18359 -0.103129,-0.33281 -0.253129,-0.60703 -0.45,-0.82266 -0.196879,-0.21562 -0.439066,-0.37577 -0.726562,-0.48047 -0.287504,-0.10468 -0.614066,-0.15702 -0.979688,-0.15703 l -0.942187,0 0,5.35781 0.759375,0 c 0.824996,0 1.446871,-0.22812 1.865625,-0.68437 0.418745,-0.45625 0.62812,-1.13281 0.628125,-2.02969 z"
       style="font-size:9.60000038px"
       id="path3396" />
    <path
       d="m 34.965976,108.98444 -2.484375,0 0,-0.47812 0.80625,-0.19219 0,-5.5125 -0.80625,-0.19219 0,-0.47812 2.484375,0 0,0.47812 -0.80625,0.19219 0,5.5125 0.80625,0.19219 z"
       style="font-size:9.60000038px"
       id="path3398" />
    <path
       d="m 41.425351,108.98444 -1.007812,0 -3.370313,-5.67187 -0.0375,0 c 0.01875,0.24063 0.03437,0.47969 0.04687,0.71719 0.0125,0.20313 0.02266,0.41563 0.03047,0.6375 0.0078,0.22188 0.01172,0.42187 0.01172,0.6 l 0,3.71718 -0.806251,0 0,-6.85312 0.998438,0 3.35625,5.64375 0.03281,0 c -0.0094,-0.2375 -0.02032,-0.47187 -0.03281,-0.70313 -0.0031,-0.1 -0.007,-0.20234 -0.01172,-0.30703 -0.0047,-0.10468 -0.0094,-0.20937 -0.01406,-0.31406 -0.0047,-0.10469 -0.0078,-0.20547 -0.0094,-0.30234 -0.0016,-0.0969 -0.0023,-0.18594 -0.0023,-0.26719 l 0,-3.75 0.815625,0 z"
       style="font-size:9.60000038px"
       id="path3400" />
  </g>
  <g
     style="font-size:7.19999981px;font-style:normal;font-variant:normal;font-weight:normal;font-stretch:normal;line-height:125%;letter-spacing:0px;word-spacing:0px;fill:#000000;fill-opacity:1;stroke:none;font-family:Droid Sans;-inkscape-font-specification:Droid Sans"
     id="text3259">
    <path
       d="m 26.467538,123.37132 1.870312,0 c 0.399997,0 0.752341,0.0305 1.057032,0.0914 0.304683,0.0609 0.55937,0.15938 0.764062,0.29532 0.204683,0.13594 0.358589,0.31406 0.461719,0.53437 0.10312,0.22032 0.154682,0.49141 0.154687,0.81328 -5e-6,0.19376 -0.03047,0.37501 -0.09141,0.54375 -0.06094,0.16876 -0.149224,0.31719 -0.264844,0.44531 -0.115629,0.12813 -0.258598,0.23516 -0.428906,0.3211 -0.170317,0.0859 -0.363285,0.14297 -0.578906,0.17109 l 0,0.0469 c 0.215621,0.0375 0.417964,0.0914 0.607031,0.16172 0.189058,0.0703 0.353902,0.16719 0.494531,0.29062 0.14062,0.12344 0.251558,0.27891 0.332813,0.46641 0.08125,0.1875 0.121869,0.41562 0.121875,0.68437 -6e-6,0.3125 -0.05079,0.59141 -0.152344,0.83672 -0.101568,0.24531 -0.248442,0.45313 -0.440625,0.62344 -0.192192,0.17031 -0.425786,0.30078 -0.700781,0.3914 -0.275004,0.0906 -0.585941,0.13594 -0.932813,0.13594 l -2.273437,0 z m 0.871875,2.90625 1.14375,0 c 0.262497,0 0.482809,-0.0234 0.660937,-0.0703 0.178122,-0.0469 0.321871,-0.1164 0.43125,-0.20859 0.109371,-0.0922 0.188277,-0.20781 0.236719,-0.34687 0.04843,-0.13906 0.07265,-0.30078 0.07266,-0.48516 -4e-6,-0.375 -0.120316,-0.64375 -0.360937,-0.80625 -0.240629,-0.1625 -0.620316,-0.24375 -1.139063,-0.24375 l -1.045312,0 z m 0,0.73125 0,2.475 1.246875,0 c 0.274996,0 0.505465,-0.0312 0.691406,-0.0937 0.185934,-0.0625 0.335934,-0.15 0.45,-0.2625 0.114058,-0.1125 0.196089,-0.24766 0.246094,-0.40547 0.05,-0.15781 0.075,-0.33203 0.075,-0.52266 -5e-6,-0.175 -0.02579,-0.33593 -0.07734,-0.48281 -0.05157,-0.14687 -0.135942,-0.27265 -0.253125,-0.37734 -0.117191,-0.10469 -0.27266,-0.18594 -0.466406,-0.24375 -0.193754,-0.0578 -0.434378,-0.0867 -0.721875,-0.0867 z"
       style="font-size:9.60000038px"
       id="path3387" />
    <path
       d="m 37.333163,123.36194 0,4.44375 c -6e-6,0.35625 -0.05157,0.6875 -0.154687,0.99375 -0.103131,0.30625 -0.2586,0.57188 -0.466407,0.79688 -0.207817,0.225 -0.468755,0.40156 -0.782812,0.52968 -0.314067,0.12813 -0.683598,0.19219 -1.108594,0.19219 -0.400003,0 -0.753128,-0.0601 -1.059375,-0.18047 -0.306252,-0.12031 -0.563283,-0.2914 -0.771094,-0.51328 -0.207814,-0.22187 -0.364845,-0.48828 -0.471094,-0.79922 -0.106251,-0.31093 -0.159376,-0.65703 -0.159375,-1.03828 l 0,-4.41562 0.876563,0 0,4.4625 c -2e-6,0.54687 0.135154,0.97031 0.405469,1.27031 0.27031,0.3 0.678903,0.45 1.225781,0.45 0.278121,0 0.517184,-0.0422 0.717187,-0.12656 0.199996,-0.0844 0.364059,-0.20313 0.492188,-0.35625 0.12812,-0.15313 0.223433,-0.33594 0.285937,-0.54844 0.0625,-0.2125 0.09531,-0.44531 0.09844,-0.69844 l 0,-4.4625 z"
       style="font-size:9.60000038px"
       id="path3389" />
    <path
       d="m 42.751913,128.39163 c -4e-6,0.30313 -0.05391,0.57422 -0.161719,0.81328 -0.107816,0.23906 -0.261723,0.44141 -0.461718,0.60703 -0.200004,0.16563 -0.443754,0.29141 -0.73125,0.37735 -0.287503,0.0859 -0.610941,0.1289 -0.970313,0.1289 -0.346877,0 -0.671095,-0.0273 -0.972656,-0.082 -0.301564,-0.0547 -0.553907,-0.13516 -0.757032,-0.24141 l 0,-0.83437 c 0.10625,0.05 0.227343,0.0992 0.363282,0.14766 0.135936,0.0484 0.278905,0.0914 0.428906,0.1289 0.149999,0.0375 0.304686,0.068 0.464062,0.0914 0.159374,0.0234 0.317186,0.0352 0.473438,0.0352 0.499997,0 0.869528,-0.0937 1.108594,-0.28125 0.239059,-0.18749 0.35859,-0.45624 0.358594,-0.80625 -4e-6,-0.16874 -0.02266,-0.31562 -0.06797,-0.44062 -0.04532,-0.125 -0.125004,-0.23984 -0.239063,-0.34453 -0.114066,-0.10469 -0.266409,-0.20625 -0.457031,-0.30469 -0.190628,-0.0984 -0.431253,-0.20547 -0.721875,-0.32109 -0.278127,-0.10938 -0.519533,-0.22891 -0.724219,-0.3586 -0.204689,-0.12968 -0.373438,-0.27577 -0.50625,-0.43828 -0.132813,-0.16249 -0.231251,-0.34687 -0.295312,-0.55312 -0.06406,-0.20625 -0.09609,-0.44062 -0.09609,-0.70313 -10e-7,-0.27499 0.05,-0.52031 0.15,-0.73594 0.1,-0.21562 0.240624,-0.39765 0.421875,-0.54609 0.181249,-0.14843 0.397655,-0.26171 0.649219,-0.33984 0.25156,-0.0781 0.528904,-0.11718 0.832031,-0.11719 0.371872,1e-5 0.706247,0.0352 1.003125,0.10547 0.296871,0.0703 0.560933,0.16016 0.792188,0.26953 l -0.314063,0.73125 c -0.203129,-0.0906 -0.433597,-0.16953 -0.691406,-0.23672 -0.257816,-0.0672 -0.524222,-0.10078 -0.799219,-0.10078 -0.381252,0 -0.676564,0.0883 -0.885938,0.26484 -0.209376,0.17657 -0.314063,0.41485 -0.314062,0.71485 -10e-7,0.17813 0.02344,0.33203 0.07031,0.46172 0.04687,0.12969 0.124999,0.24687 0.234375,0.35156 0.109374,0.10469 0.253905,0.20313 0.433594,0.29531 0.179685,0.0922 0.400779,0.18985 0.663281,0.29297 0.284372,0.1125 0.533591,0.22813 0.747657,0.34687 0.214058,0.11876 0.392965,0.25313 0.536719,0.40313 0.143745,0.15 0.252339,0.32344 0.325781,0.52031 0.07343,0.19688 0.110152,0.42969 0.110156,0.69844 z"
       style="font-size:9.60000038px"
       id="path3391" />
    <path
       d="m 45.723788,126.83538 1.59375,-3.46406 0.9375,0 -2.090625,4.18593 0,2.66719 -0.876562,0 0,-2.62031 -2.090625,-4.23281 0.951562,0 z"
       style="font-size:9.60000038px"
       id="path3393" />
  </g>
  <g
     style="font-size:7.19999981px;font-style:normal;font-variant:normal;font-weight:normal;font-stretch:normal;line-height:125%;letter-spacing:0px;word-spacing:0px;fill:#000000;fill-opacity:1;stroke:none;font-family:Droid Sans;-inkscape-font-specification:Droid Sans"
     id="text3263">
    <path
       d="m 30.573788,146.61757 c -5e-6,0.28438 -0.04297,0.55782 -0.128906,0.82031 -0.08594,0.26251 -0.227349,0.49454 -0.424219,0.6961 -0.196879,0.20156 -0.457035,0.3625 -0.780469,0.48281 -0.323441,0.12032 -0.722659,0.18047 -1.197656,0.18047 l -0.703125,0 0,2.66719 -0.871875,0 0,-6.85313 1.696875,0 c 0.418747,1e-5 0.779684,0.0445 1.082812,0.1336 0.303121,0.0891 0.553121,0.21875 0.75,0.38906 0.196871,0.17032 0.342183,0.38047 0.435938,0.63047 0.09374,0.25 0.14062,0.53438 0.140625,0.85312 z m -3.234375,1.43906 0.604687,0 c 0.290623,10e-6 0.544529,-0.025 0.761719,-0.075 0.217184,-0.05 0.396872,-0.13046 0.539063,-0.2414 0.142183,-0.11094 0.249214,-0.25469 0.321093,-0.43125 0.07187,-0.17656 0.107809,-0.3914 0.107813,-0.64453 -4e-6,-0.44375 -0.128129,-0.77265 -0.384375,-0.98672 -0.256254,-0.21406 -0.656253,-0.32109 -1.2,-0.3211 l -0.75,0 z"
       style="font-size:9.60000038px"
       id="path3378" />
    <path
       d="m 31.998788,151.46445 0,-6.85313 0.871875,0 0,6.075 2.685937,0 0,0.77813 z"
       style="font-size:9.60000038px"
       id="path3380" />
    <path
       d="m 40.736288,151.46445 -0.75,-2.12344 -2.554687,0 -0.759375,2.12344 -0.88125,0 2.517187,-6.88125 0.796875,0 2.521875,6.88125 z m -1.026562,-2.89688 -0.69375,-1.9875 c -0.01875,-0.0562 -0.04141,-0.12499 -0.06797,-0.20625 -0.02657,-0.0812 -0.05391,-0.16874 -0.08203,-0.2625 -0.02813,-0.0937 -0.05625,-0.1914 -0.08438,-0.29297 -0.02813,-0.10155 -0.05469,-0.20077 -0.07969,-0.29765 -0.02188,0.0969 -0.04688,0.19688 -0.075,0.3 -0.02813,0.10313 -0.05625,0.20235 -0.08438,0.29765 -0.02813,0.0953 -0.05547,0.18282 -0.08203,0.2625 -0.02656,0.0797 -0.04922,0.1461 -0.06797,0.19922 l -0.679687,1.9875 z"
       style="font-size:9.60000038px"
       id="path3382" />
    <path
       d="m 44.148789,148.07538 1.59375,-3.46406 0.9375,0 -2.090625,4.18594 0,2.66719 -0.876562,0 0,-2.62032 -2.090625,-4.23281 0.951562,0 z"
       style="font-size:9.60000038px"
       id="path3384" />
  </g>
  <g
     style="font-size:7.19999981px;font-style:normal;font-variant:normal;font-weight:normal;font-stretch:normal;line-height:125%;letter-spacing:0px;word-spacing:0px;fill:#000000;fill-opacity:1;stroke:none;font-family:Droid Sans;-inkscape-font-specification:Droid Sans"
     id="text3267">
    <path
       d="m 31.60035,172.70444 -1.007812,0 -3.370313,-5.67188 -0.0375,0 c 0.01875,0.24063 0.03437,0.47969 0.04687,0.71719 0.0125,0.20313 0.02266,0.41563 0.03047,0.6375 0.0078,0.22188 0.01172,0.42188 0.01172,0.6 l 0,3.71719 -0.80625,0 0,-6.85313 0.998437,0 3.35625,5.64375 0.03281,0 c -0.0094,-0.2375 -0.02032,-0.47187 -0.03281,-0.70312 -0.0031,-0.1 -0.007,-0.20234 -0.01172,-0.30703 -0.0047,-0.10469 -0.0094,-0.20938 -0.01406,-0.31407 -0.0047,-0.10468 -0.0078,-0.20546 -0.0094,-0.30234 -0.0016,-0.0969 -0.0023,-0.18593 -0.0023,-0.26719 l 0,-3.75 0.815625,0 z"
       style="font-size:9.60000038px"
       id="path3369" />
    <path
       d="m 37.0191,172.70444 -3.557812,0 0,-6.85313 3.557812,0 0,0.76875 -2.685937,0 0,2.11875 2.507812,0 0,0.75938 -2.507812,0 0,2.4375 2.685937,0 z"
       style="font-size:9.60000038px"
       id="path3371" />
    <path
       d="m 42.840975,172.70444 -0.989063,0 -1.659375,-2.97657 -1.720312,2.97657 -0.88125,0 2.123437,-3.58125 -1.978125,-3.27188 0.928125,0 1.55625,2.62031 1.565625,-2.62031 0.890626,0 -1.973438,3.24375 z"
       style="font-size:9.60000038px"
       id="path3373" />
    <path
       d="m 45.770662,172.70444 -0.876562,0 0,-6.08438 -1.959375,0 0,-0.76875 4.790625,0 0,0.76875 -1.954688,0 z"
       style="font-size:9.60000038px"
       id="path3375" />
  </g>
  <g
     style="font-size:7.19999981px;font-style:normal;font-variant:normal;font-weight:normal;font-stretch:normal;line-height:125%;letter-spacing:0px;word-spacing:0px;fill:#000000;fill-opacity:1;stroke:none;font-family:Droid Sans;-inkscape-font-specification:Droid Sans"
     id="text3271">
    <path
       d="m 64.070453,40.417571 c -5e-6,0.28438 -0.04297,0.557817 -0.128906,0.820313 -0.08594,0.262503 -0.227349,0.494534 -0.424219,0.696093 -0.19688,0.201566 -0.457036,0.362503 -0.780469,0.482813 -0.323441,0.120315 -0.722659,0.180471 -1.197656,0.180469 l -0.703125,0 0,2.667187 -0.871875,0 0,-6.853125 1.696875,0 c 0.418747,7e-6 0.779684,0.04454 1.082812,0.133594 0.303121,0.08907 0.553121,0.218756 0.75,0.389062 0.196871,0.170319 0.342183,0.380475 0.435938,0.630469 0.09374,0.250005 0.14062,0.53438 0.140625,0.853125 z m -3.234375,1.439063 0.604687,0 c 0.290623,3e-6 0.544529,-0.025 0.761719,-0.075 0.217184,-0.05 0.396871,-0.130466 0.539063,-0.241407 0.142183,-0.110933 0.249214,-0.254683 0.321093,-0.43125 0.07187,-0.176558 0.107809,-0.391401 0.107813,-0.644531 -4e-6,-0.443745 -0.128129,-0.772651 -0.384375,-0.986719 -0.256254,-0.214056 -0.656253,-0.321087 -1.2,-0.321093 l -0.75,0 z"
       style="font-size:9.60000038px;text-align:end;text-anchor:end"
       id="path3354" />
    <path
       d="m 68.354828,38.411321 0.923437,0 1.073438,4.0125 c 0.04687,0.175003 0.09296,0.350003 0.138281,0.525 0.04531,0.175002 0.08749,0.344533 0.126563,0.508594 0.03906,0.164064 0.07343,0.319533 0.103125,0.466406 0.02968,0.146876 0.0539,0.279689 0.07266,0.398438 0.01249,-0.118749 0.02812,-0.248437 0.04687,-0.389063 0.01874,-0.140623 0.04062,-0.288279 0.06562,-0.442969 0.02499,-0.154685 0.05234,-0.312497 0.08203,-0.473437 0.02968,-0.160935 0.06171,-0.317966 0.09609,-0.471094 l 0.9375,-4.134375 0.932812,0 -1.720312,6.853125 -0.88125,0 -1.190625,-4.396875 c -0.04376,-0.15937 -0.08594,-0.323433 -0.126563,-0.492187 -0.04063,-0.168745 -0.07813,-0.326558 -0.1125,-0.473438 -0.0375,-0.171869 -0.07344,-0.339057 -0.107812,-0.501562 -0.03438,0.15938 -0.06875,0.325005 -0.103125,0.496875 -0.03125,0.14688 -0.06641,0.307817 -0.105469,0.482812 -0.03907,0.175005 -0.08047,0.34688 -0.124219,0.515625 l -1.134375,4.36875 -0.88125,0 -1.809375,-6.853125 0.923438,0 1.045312,4.167188 c 0.0375,0.143752 0.07187,0.292971 0.103125,0.447656 0.03125,0.15469 0.06015,0.308596 0.08672,0.461719 0.02656,0.153126 0.05078,0.300782 0.07266,0.442968 0.02187,0.142189 0.04062,0.272658 0.05625,0.391407 0.01562,-0.115624 0.03515,-0.249999 0.05859,-0.403125 0.02344,-0.153124 0.05078,-0.314061 0.08203,-0.482813 0.03125,-0.168748 0.06484,-0.339841 0.100781,-0.513281 0.03594,-0.173435 0.07422,-0.336716 0.114844,-0.489844 z"
       style="font-size:9.60000038px;text-align:end;text-anchor:end"
       id="path3356" />
    <path
       d="m 76.820453,45.264446 -2.076562,-6 -0.0375,0 c 0.01875,0.231256 0.03437,0.460943 0.04687,0.689063 0.0125,0.19688 0.02265,0.403911 0.03047,0.621093 0.0078,0.217192 0.01172,0.414848 0.01172,0.592969 l 0,4.096875 -0.80625,0 0,-6.853125 1.29375,0 1.93125,5.5875 0.02813,0 1.940625,-5.5875 1.29375,0 0,6.853125 -0.871875,0 0,-4.157812 c -6e-6,-0.162496 0.0031,-0.348433 0.0094,-0.557813 0.0062,-0.20937 0.01406,-0.40937 0.02344,-0.6 0.01249,-0.221869 0.02343,-0.446869 0.03281,-0.675 l -0.0375,0 -2.095312,5.990625 z"
       style="font-size:9.60000038px;text-align:end;text-anchor:end"
       id="path3358" />
    <path
       d="m 85.384516,46.783196 -3.984375,0 0,-0.65625 3.984375,0 z"
       style="font-size:9.60000038px;text-align:end;text-anchor:end"
       id="path3360" />
    <path
       d="m 91.904828,41.828509 c -7e-6,0.528128 -0.06329,1.009377 -0.189844,1.44375 -0.126569,0.434376 -0.31485,0.806251 -0.564844,1.115625 -0.250005,0.309375 -0.560161,0.548438 -0.930468,0.717187 -0.370317,0.16875 -0.797661,0.253125 -1.282032,0.253125 -0.509378,0 -0.950784,-0.08438 -1.324219,-0.253125 -0.373439,-0.168749 -0.682814,-0.407812 -0.928125,-0.717187 -0.245313,-0.309374 -0.427344,-0.68203 -0.546093,-1.117969 -0.118751,-0.435935 -0.178126,-0.919528 -0.178125,-1.450781 -10e-7,-0.531246 0.05937,-1.013277 0.178125,-1.446094 0.118749,-0.432807 0.301561,-0.802338 0.548437,-1.108594 0.246874,-0.306244 0.557811,-0.542962 0.932813,-0.710156 0.374997,-0.167181 0.817184,-0.250775 1.326562,-0.250782 0.484371,7e-6 0.910152,0.0836 1.277344,0.250782 0.367182,0.167194 0.675776,0.404694 0.925781,0.7125 0.249994,0.307818 0.438275,0.67813 0.564844,1.110937 0.126556,0.432817 0.189837,0.916411 0.189844,1.450782 z m -5.020313,0 c -10e-7,0.428128 0.04062,0.813284 0.121875,1.155468 0.08125,0.34219 0.205467,0.632815 0.372656,0.871875 0.167186,0.239064 0.379686,0.421876 0.6375,0.548438 0.25781,0.126563 0.564841,0.189844 0.921094,0.189844 0.356246,0 0.663277,-0.06328 0.921094,-0.189844 0.257808,-0.126562 0.470308,-0.309374 0.6375,-0.548438 0.167182,-0.23906 0.289838,-0.529685 0.367969,-0.871875 0.07812,-0.342184 0.117182,-0.72734 0.117187,-1.155468 -5e-6,-0.431247 -0.03907,-0.817184 -0.117187,-1.157813 -0.07813,-0.34062 -0.200005,-0.628901 -0.365625,-0.864844 -0.16563,-0.235932 -0.376567,-0.417181 -0.632813,-0.54375 -0.256254,-0.126556 -0.562504,-0.189837 -0.91875,-0.189843 -0.356253,6e-6 -0.664065,0.06329 -0.923437,0.189843 -0.259378,0.126569 -0.47344,0.307818 -0.642188,0.54375 -0.168752,0.235943 -0.293752,0.524224 -0.375,0.864844 -0.08125,0.340629 -0.121876,0.726566 -0.121875,1.157813 z"
       style="font-size:9.60000038px;text-align:end;text-anchor:end"
       id="path3362" />
    <path
       d="m 98.336078,38.401946 0,4.44375 c -6e-6,0.356252 -0.05157,0.687502 -0.154688,0.99375 -0.10313,0.306251 -0.258599,0.571876 -0.466406,0.796875 -0.207817,0.225001 -0.468755,0.401563 -0.782812,0.529688 -0.314067,0.128125 -0.683598,0.192187 -1.108594,0.192187 -0.400003,0 -0.753128,-0.06016 -1.059375,-0.180468 -0.306252,-0.120313 -0.563283,-0.291406 -0.771094,-0.513282 -0.207814,-0.221874 -0.364845,-0.48828 -0.471094,-0.799219 -0.106251,-0.310935 -0.159376,-0.657029 -0.159375,-1.038281 l 0,-4.415625 0.876563,0 0,4.4625 c -2e-6,0.546877 0.135154,0.970314 0.405468,1.270313 0.270311,0.300001 0.678904,0.45 1.225782,0.45 0.278121,0 0.517183,-0.04219 0.717187,-0.126563 0.199996,-0.08437 0.364058,-0.203124 0.492188,-0.35625 0.12812,-0.153123 0.223432,-0.335936 0.285937,-0.548437 0.06249,-0.212498 0.09531,-0.445311 0.09844,-0.698438 l 0,-4.4625 z"
       style="font-size:9.60000038px;text-align:end;text-anchor:end"
       id="path3364" />
    <path
       d="m 102.14233,45.264446 -0.87656,0 0,-6.084375 -1.959378,0 0,-0.76875 4.790628,0 0,0.76875 -1.95469,0 z"
       style="font-size:9.60000038px;text-align:end;text-anchor:end"
       id="path3366" />
  </g>
  <g
     style="font-size:7.19999981px;font-style:normal;font-variant:normal;font-weight:normal;font-stretch:normal;line-height:125%;letter-spacing:0px;word-spacing:0px;fill:#000000;fill-opacity:1;stroke:none;font-family:Droid Sans;-inkscape-font-specification:Droid Sans"
     id="text3275">
    <path
       d="m 97.478267,66.50444 -1.007813,0 -3.370313,-5.671875 -0.0375,0 c 0.01875,0.240631 0.03437,0.479693 0.04687,0.717188 0.0125,0.203129 0.02266,0.415629 0.03047,0.6375 0.0078,0.221879 0.01172,0.421879 0.01172,0.6 l 0,3.717187 -0.80625,0 0,-6.853125 0.998437,0 3.356251,5.64375 0.03281,0 c -0.0094,-0.237498 -0.02032,-0.471873 -0.03281,-0.703125 -0.0031,-0.1 -0.007,-0.202341 -0.01172,-0.307031 -0.0047,-0.104685 -0.0094,-0.209373 -0.01406,-0.314063 -0.0047,-0.104684 -0.0078,-0.205466 -0.0094,-0.302343 -0.0016,-0.09687 -0.0023,-0.185935 -0.0023,-0.267188 l 0,-3.75 0.815625,0 z"
       style="font-size:9.60000038px;text-align:end;text-anchor:end"
       id="path3349" />
    <path
       d="m 102.12358,60.321628 c -0.33438,6e-6 -0.6375,0.06329 -0.90938,0.189843 -0.27187,0.126569 -0.5039,0.3086 -0.69609,0.546094 -0.19219,0.237505 -0.34063,0.526568 -0.44531,0.867188 -0.104691,0.340629 -0.157035,0.725004 -0.157033,1.153125 -2e-6,0.440628 0.04609,0.832034 0.138283,1.174218 0.0922,0.34219 0.23046,0.630471 0.41484,0.864844 0.18437,0.234376 0.41406,0.412501 0.68906,0.534375 0.275,0.121876 0.59688,0.182813 0.96563,0.182813 0.27812,0 0.54218,-0.02734 0.79219,-0.08203 0.24999,-0.05469 0.49687,-0.117968 0.74062,-0.189844 l 0,0.759375 c -0.12188,0.04687 -0.24375,0.08828 -0.36562,0.124219 -0.12188,0.03594 -0.24923,0.06484 -0.38203,0.08672 -0.13282,0.02187 -0.27501,0.03828 -0.42657,0.04922 -0.15156,0.01094 -0.31953,0.01641 -0.5039,0.01641 -0.51251,0 -0.95626,-0.08438 -1.33125,-0.253125 -0.37501,-0.168749 -0.685161,-0.407812 -0.930472,-0.717187 -0.245314,-0.309374 -0.427345,-0.681249 -0.546094,-1.115625 -0.118751,-0.434373 -0.178126,-0.915622 -0.178125,-1.44375 -10e-7,-0.518746 0.06797,-0.993746 0.203906,-1.425 0.135937,-0.431245 0.335937,-0.801557 0.6,-1.110938 0.264065,-0.309369 0.591405,-0.549993 0.982035,-0.721875 0.39062,-0.171868 0.83906,-0.257806 1.34531,-0.257812 0.3375,6e-6 0.65937,0.03438 0.96562,0.103125 0.30625,0.06876 0.58281,0.168756 0.82969,0.3 l -0.36562,0.73125 c -0.19688,-0.09999 -0.41095,-0.185932 -0.64219,-0.257813 -0.23126,-0.07187 -0.49375,-0.107806 -0.7875,-0.107812 z"
       style="font-size:9.60000038px;text-align:end;text-anchor:end"
       id="path3351" />
  </g>
  <g
     style="font-size:7.19999981px;font-style:normal;font-variant:normal;font-weight:normal;font-stretch:normal;line-height:125%;letter-spacing:0px;word-spacing:0px;fill:#000000;fill-opacity:1;stroke:none;font-family:Droid Sans;-inkscape-font-specification:Droid Sans"
     id="text3279">
    <path
       d="m 89.561079,85.911633 c -5e-6,0.303127 -0.05391,0.57422 -0.161719,0.813282 -0.107817,0.239063 -0.261723,0.441406 -0.461719,0.607031 -0.200003,0.165625 -0.443753,0.291406 -0.73125,0.377344 -0.287503,0.08594 -0.61094,0.128906 -0.970312,0.128906 -0.346877,0 -0.671096,-0.02734 -0.972657,-0.08203 -0.301563,-0.05469 -0.553907,-0.135157 -0.757031,-0.241407 l 0,-0.834375 c 0.10625,0.05 0.227343,0.09922 0.363281,0.147657 0.135937,0.04844 0.278906,0.09141 0.428907,0.128906 0.149998,0.0375 0.304686,0.06797 0.464062,0.09141 0.159373,0.02344 0.317186,0.03516 0.473438,0.03516 0.499997,1e-6 0.869528,-0.09375 1.108594,-0.28125 0.239058,-0.187499 0.35859,-0.456248 0.358593,-0.80625 -3e-6,-0.168748 -0.02266,-0.315623 -0.06797,-0.440625 -0.04532,-0.124997 -0.125004,-0.239841 -0.239063,-0.344531 -0.114066,-0.104685 -0.266409,-0.206247 -0.457031,-0.304688 -0.190628,-0.09843 -0.431253,-0.205465 -0.721875,-0.321093 -0.278127,-0.109372 -0.519533,-0.228903 -0.724219,-0.358594 -0.204689,-0.129684 -0.373439,-0.275778 -0.50625,-0.438281 -0.132813,-0.162496 -0.231251,-0.346871 -0.295313,-0.553125 -0.06406,-0.206246 -0.09609,-0.44062 -0.09609,-0.703125 -10e-7,-0.274995 0.05,-0.520307 0.15,-0.735938 0.1,-0.215619 0.240624,-0.39765 0.421875,-0.546094 0.181248,-0.148431 0.397654,-0.261712 0.649218,-0.339843 0.251561,-0.07812 0.528904,-0.117181 0.832032,-0.117188 0.371872,7e-6 0.706246,0.03516 1.003125,0.105469 0.296871,0.07032 0.560933,0.160163 0.792187,0.269531 l -0.314062,0.73125 c -0.203129,-0.09062 -0.433598,-0.169525 -0.691406,-0.236719 -0.257816,-0.06718 -0.524222,-0.100775 -0.799219,-0.100781 -0.381253,6e-6 -0.676565,0.08829 -0.885938,0.264844 -0.209376,0.176568 -0.314064,0.414849 -0.314062,0.714844 -2e-6,0.17813 0.02344,0.332036 0.07031,0.461718 0.04687,0.129692 0.124999,0.24688 0.234375,0.351563 0.109373,0.104692 0.253904,0.203129 0.433594,0.295312 0.179685,0.09219 0.400779,0.189848 0.663281,0.292969 0.284372,0.112504 0.533591,0.228129 0.747657,0.346875 0.214058,0.118754 0.392964,0.253128 0.536718,0.403125 0.143746,0.150003 0.25234,0.32344 0.325782,0.520313 0.07343,0.196877 0.110151,0.429689 0.110156,0.698437 z"
       style="font-size:9.60000038px;text-align:end;text-anchor:end"
       id="path3340" />
    <path
       d="m 95.045454,82.897571 c -5e-6,0.284379 -0.04297,0.557816 -0.128906,0.820312 -0.08594,0.262504 -0.227349,0.494535 -0.424219,0.696094 -0.196879,0.201566 -0.457035,0.362503 -0.780469,0.482812 -0.323441,0.120316 -0.722659,0.180472 -1.197656,0.180469 l -0.703125,0 0,2.667188 -0.871875,0 0,-6.853125 1.696875,0 c 0.418747,6e-6 0.779684,0.04454 1.082812,0.133593 0.303121,0.08907 0.553121,0.218757 0.750001,0.389063 0.19687,0.170318 0.342182,0.380475 0.435937,0.630469 0.09374,0.250005 0.14062,0.53438 0.140625,0.853125 z m -3.234375,1.439062 0.604687,0 c 0.290623,4e-6 0.544529,-0.025 0.761719,-0.075 0.217184,-0.05 0.396872,-0.130465 0.539063,-0.241406 0.142183,-0.110934 0.249215,-0.254684 0.321093,-0.43125 0.07187,-0.176558 0.107809,-0.391402 0.107813,-0.644531 -4e-6,-0.443745 -0.128129,-0.772651 -0.384375,-0.986719 -0.256254,-0.214057 -0.656253,-0.321088 -1.2,-0.321094 l -0.75,0 z"
       style="font-size:9.60000038px;text-align:end;text-anchor:end"
       id="path3342" />
    <path
       d="m 101.09702,87.744446 -0.98907,0 -2.114059,-3.271875 -0.651562,0.534375 0,2.7375 -0.871875,0 0,-6.853125 0.871875,0 0,3.426562 0.567187,-0.7875 2.118754,-2.639062 0.97968,0 -2.437496,2.985937 z"
       style="font-size:9.60000038px;text-align:end;text-anchor:end"
       id="path3344" />
    <path
       d="m 101.49077,85.564758 0,-0.7875 2.325,0 0,0.7875 z"
       style="font-size:9.60000038px;text-align:end;text-anchor:end"
       id="path3346" />
  </g>
  <g
     style="font-size:7.19999981px;font-style:normal;font-variant:normal;font-weight:normal;font-stretch:normal;line-height:125%;letter-spacing:0px;word-spacing:0px;fill:#000000;fill-opacity:1;stroke:none;font-family:Droid Sans;-inkscape-font-specification:Droid Sans"
     id="text3283">
    <path
       d="m 87.367329,107.15163 c -5e-6,0.30313 -0.05391,0.57422 -0.161719,0.81328 -0.107817,0.23907 -0.261723,0.44141 -0.461719,0.60703 -0.200004,0.16563 -0.443753,0.29141 -0.73125,0.37735 -0.287503,0.0859 -0.61094,0.1289 -0.970312,0.1289 -0.346877,0 -0.671096,-0.0273 -0.972657,-0.082 -0.301563,-0.0547 -0.553907,-0.13515 -0.757031,-0.2414 l 0,-0.83438 c 0.106249,0.05 0.227343,0.0992 0.363281,0.14766 0.135937,0.0484 0.278905,0.0914 0.428907,0.1289 0.149998,0.0375 0.304686,0.068 0.464062,0.0914 0.159373,0.0234 0.317186,0.0352 0.473438,0.0352 0.499997,0 0.869528,-0.0937 1.108593,-0.28125 0.239059,-0.1875 0.358591,-0.45625 0.358594,-0.80625 -3e-6,-0.16875 -0.02266,-0.31563 -0.06797,-0.44063 -0.04532,-0.125 -0.125003,-0.23984 -0.239062,-0.34453 -0.114066,-0.10469 -0.266409,-0.20625 -0.457031,-0.30469 -0.190628,-0.0984 -0.431253,-0.20546 -0.721875,-0.32109 -0.278127,-0.10937 -0.519533,-0.2289 -0.724219,-0.3586 -0.204689,-0.12968 -0.373439,-0.27577 -0.50625,-0.43828 -0.132813,-0.16249 -0.231251,-0.34687 -0.295313,-0.55312 -0.06406,-0.20625 -0.09609,-0.44062 -0.09609,-0.70313 -10e-7,-0.27499 0.05,-0.5203 0.15,-0.73593 0.1,-0.21562 0.240624,-0.39765 0.421875,-0.5461 0.181248,-0.14843 0.397654,-0.26171 0.649218,-0.33984 0.251561,-0.0781 0.528904,-0.11718 0.832032,-0.11719 0.371872,10e-6 0.706246,0.0352 1.003125,0.10547 0.296871,0.0703 0.560933,0.16016 0.792187,0.26953 l -0.314062,0.73125 c -0.203129,-0.0906 -0.433598,-0.16952 -0.691407,-0.23672 -0.257815,-0.0672 -0.524221,-0.10077 -0.799218,-0.10078 -0.381253,1e-5 -0.676565,0.0883 -0.885938,0.26484 -0.209376,0.17657 -0.314064,0.41485 -0.314062,0.71485 -2e-6,0.17813 0.02344,0.33203 0.07031,0.46172 0.04687,0.12969 0.124999,0.24688 0.234375,0.35156 0.109373,0.10469 0.253904,0.20313 0.433594,0.29531 0.179685,0.0922 0.400779,0.18985 0.663281,0.29297 0.284372,0.1125 0.533591,0.22813 0.747656,0.34688 0.214059,0.11875 0.392965,0.25312 0.536719,0.40312 0.143746,0.15 0.25234,0.32344 0.325781,0.52031 0.07343,0.19688 0.110152,0.42969 0.110157,0.69844 z"
       style="font-size:9.60000038px;text-align:end;text-anchor:end"
       id="path3331" />
    <path
       d="m 92.851704,104.13757 c -5e-6,0.28438 -0.04297,0.55782 -0.128906,0.82031 -0.08594,0.2625 -0.227349,0.49454 -0.424219,0.69609 -0.196879,0.20157 -0.457035,0.36251 -0.780469,0.48282 -0.323441,0.12031 -0.722659,0.18047 -1.197656,0.18047 l -0.703125,0 0,2.66718 -0.871875,0 0,-6.85312 1.696875,0 c 0.418747,1e-5 0.779684,0.0445 1.082812,0.13359 0.303121,0.0891 0.553121,0.21876 0.75,0.38906 0.196871,0.17032 0.342183,0.38048 0.435938,0.63047 0.09374,0.25001 0.14062,0.53438 0.140625,0.85313 z m -3.234375,1.43906 0.604687,0 c 0.290623,0 0.544529,-0.025 0.761719,-0.075 0.217184,-0.05 0.396872,-0.13046 0.539063,-0.24141 0.142183,-0.11093 0.249214,-0.25468 0.321093,-0.43125 0.07187,-0.17655 0.107809,-0.3914 0.107813,-0.64453 -4e-6,-0.44374 -0.128129,-0.77265 -0.384375,-0.98672 -0.256254,-0.21405 -0.656253,-0.32108 -1.2,-0.32109 l -0.75,0 z"
       style="font-size:9.60000038px;text-align:end;text-anchor:end"
       id="path3333" />
    <path
       d="m 98.903266,108.98444 -0.989062,0 -2.114063,-3.27187 -0.651562,0.53437 0,2.7375 -0.871875,0 0,-6.85312 0.871875,0 0,3.42656 0.567187,-0.7875 2.11875,-2.63906 0.979688,0 -2.4375,2.98594 z"
       style="font-size:9.60000038px;text-align:end;text-anchor:end"
       id="path3335" />
    <path
       d="m 101.20483,105.95163 -1.814062,0 0,-0.70312 1.814062,0 0,-1.82344 0.70313,0 0,1.82344 1.81406,0 0,0.70312 -1.81406,0 0,1.80469 -0.70313,0 z"
       style="font-size:9.60000038px;text-align:end;text-anchor:end"
       id="path3337" />
  </g>
  <g
     style="font-size:7.19999981px;font-style:normal;font-variant:normal;font-weight:normal;font-stretch:normal;line-height:125%;letter-spacing:0px;word-spacing:0px;fill:#000000;fill-opacity:1;stroke:none;font-family:Droid Sans;-inkscape-font-specification:Droid Sans"
     id="text3287">
    <path
       d="m 80.242328,127.39319 0,2.83125 -0.871875,0 0,-6.85312 1.66875,0 c 0.831247,0 1.445309,0.16094 1.842188,0.48281 0.39687,0.32188 0.595308,0.80938 0.595313,1.4625 -5e-6,0.27188 -0.03829,0.50938 -0.114844,0.7125 -0.07657,0.20313 -0.17813,0.37735 -0.304688,0.52266 -0.126567,0.14531 -0.271098,0.2664 -0.433593,0.36328 -0.162504,0.0969 -0.329692,0.17656 -0.501563,0.23906 l 1.865625,3.07031 -1.026562,0 -1.645313,-2.83125 z m 0,-0.74062 0.76875,0 c 0.281248,0 0.52031,-0.0273 0.717188,-0.082 0.196872,-0.0547 0.35859,-0.13594 0.485156,-0.24375 0.126559,-0.10781 0.218746,-0.24219 0.276563,-0.40313 0.05781,-0.16093 0.08671,-0.34921 0.08672,-0.56484 -5e-6,-0.225 -0.03204,-0.41562 -0.09609,-0.57188 -0.06407,-0.15624 -0.160942,-0.28437 -0.290625,-0.38437 -0.129691,-0.1 -0.293754,-0.17265 -0.492188,-0.21797 -0.19844,-0.0453 -0.433596,-0.068 -0.705469,-0.068 l -0.75,0 z"
       style="font-size:9.60000038px;text-align:end;text-anchor:end"
       id="path3320" />
    <path
       d="m 88.590766,130.22444 -3.557812,0 0,-6.85312 3.557812,0 0,0.76875 -2.685937,0 0,2.11875 2.507812,0 0,0.75937 -2.507812,0 0,2.4375 2.685937,0 z"
       style="font-size:9.60000038px;text-align:end;text-anchor:end"
       id="path3322" />
    <path
       d="m 93.704829,128.39163 c -5e-6,0.30313 -0.05391,0.57422 -0.161719,0.81328 -0.107817,0.23906 -0.261723,0.44141 -0.461719,0.60703 -0.200003,0.16563 -0.443753,0.29141 -0.73125,0.37735 -0.287503,0.0859 -0.61094,0.1289 -0.970312,0.1289 -0.346877,0 -0.671095,-0.0273 -0.972656,-0.082 -0.301564,-0.0547 -0.553907,-0.13516 -0.757032,-0.24141 l 0,-0.83437 c 0.10625,0.05 0.227343,0.0992 0.363282,0.14766 0.135936,0.0484 0.278905,0.0914 0.428906,0.1289 0.149998,0.0375 0.304686,0.068 0.464062,0.0914 0.159373,0.0234 0.317186,0.0352 0.473438,0.0352 0.499997,0 0.869528,-0.0937 1.108594,-0.28125 0.239059,-0.18749 0.35859,-0.45624 0.358593,-0.80625 -3e-6,-0.16874 -0.02266,-0.31562 -0.06797,-0.44062 -0.04532,-0.125 -0.125004,-0.23984 -0.239063,-0.34453 -0.114066,-0.10469 -0.266409,-0.20625 -0.457031,-0.30469 -0.190628,-0.0984 -0.431253,-0.20547 -0.721875,-0.32109 -0.278127,-0.10938 -0.519533,-0.22891 -0.724219,-0.3586 -0.204689,-0.12968 -0.373439,-0.27577 -0.50625,-0.43828 -0.132813,-0.16249 -0.231251,-0.34687 -0.295312,-0.55312 -0.06406,-0.20625 -0.09609,-0.44062 -0.09609,-0.70313 -10e-7,-0.27499 0.05,-0.52031 0.15,-0.73594 0.1,-0.21562 0.240624,-0.39765 0.421875,-0.54609 0.181248,-0.14843 0.397655,-0.26171 0.649219,-0.33984 0.25156,-0.0781 0.528904,-0.11718 0.832031,-0.11719 0.371872,1e-5 0.706247,0.0352 1.003125,0.10547 0.296871,0.0703 0.560933,0.16016 0.792187,0.26953 l -0.314062,0.73125 c -0.203129,-0.0906 -0.433598,-0.16953 -0.691406,-0.23672 -0.257816,-0.0672 -0.524222,-0.10078 -0.799219,-0.10078 -0.381252,0 -0.676565,0.0883 -0.885938,0.26484 -0.209376,0.17657 -0.314064,0.41485 -0.314062,0.71485 -2e-6,0.17813 0.02344,0.33203 0.07031,0.46172 0.04687,0.12969 0.124999,0.24687 0.234375,0.35156 0.109374,0.10469 0.253905,0.20313 0.433594,0.29531 0.179685,0.0922 0.400779,0.18985 0.663281,0.29297 0.284372,0.1125 0.533591,0.22813 0.747657,0.34687 0.214058,0.11876 0.392964,0.25313 0.536718,0.40313 0.143746,0.15 0.25234,0.32344 0.325782,0.52031 0.07343,0.19688 0.110151,0.42969 0.110156,0.69844 z"
       style="font-size:9.60000038px;text-align:end;text-anchor:end"
       id="path3324" />
    <path
       d="m 98.640767,130.22444 -3.557813,0 0,-6.85312 3.557813,0 0,0.76875 -2.685938,0 0,2.11875 2.507813,0 0,0.75937 -2.507813,0 0,2.4375 2.685938,0 z"
       style="font-size:9.60000038px;text-align:end;text-anchor:end"
       id="path3326" />
    <path
       d="m 102.14233,130.22444 -0.87656,0 0,-6.08437 -1.959378,0 0,-0.76875 4.790628,0 0,0.76875 -1.95469,0 z"
       style="font-size:9.60000038px;text-align:end;text-anchor:end"
       id="path3328" />
  </g>
  <g
     style="font-size:7.19999981px;font-style:normal;font-variant:normal;font-weight:normal;font-stretch:normal;line-height:125%;letter-spacing:0px;word-spacing:0px;fill:#000000;fill-opacity:1;stroke:none;font-family:Droid Sans;-inkscape-font-specification:Droid Sans"
     id="text3291">
    <path
       d="m 87.690766,147.8457 2.26875,0 0,3.36093 c -0.17188,0.0563 -0.345318,0.10625 -0.520312,0.15 -0.175005,0.0438 -0.354693,0.0805 -0.539063,0.11016 -0.184379,0.0297 -0.378129,0.0523 -0.58125,0.068 -0.203129,0.0156 -0.421879,0.0234 -0.65625,0.0234 -0.490628,0 -0.925002,-0.082 -1.303125,-0.2461 -0.378127,-0.16406 -0.696876,-0.39843 -0.95625,-0.70312 -0.259376,-0.30469 -0.456251,-0.675 -0.590625,-1.11094 -0.134376,-0.43593 -0.201563,-0.92578 -0.201562,-1.46953 -10e-7,-0.5375 0.07422,-1.02343 0.222656,-1.45781 0.148436,-0.43437 0.364842,-0.8039 0.649219,-1.1086 0.284373,-0.30468 0.635154,-0.53905 1.052343,-0.70312 0.417185,-0.16406 0.892966,-0.24609 1.427344,-0.2461 0.346871,1e-5 0.679683,0.0344 0.998438,0.10313 0.318745,0.0688 0.615619,0.16876 0.890625,0.3 l -0.3375,0.75937 c -0.112506,-0.0531 -0.233599,-0.10311 -0.363281,-0.15 -0.129693,-0.0469 -0.263287,-0.0883 -0.400782,-0.12421 -0.137504,-0.0359 -0.27891,-0.0648 -0.424218,-0.0867 -0.145317,-0.0219 -0.289848,-0.0328 -0.433594,-0.0328 -0.381254,1e-5 -0.718753,0.0633 -1.0125,0.18985 -0.293753,0.12657 -0.539846,0.3086 -0.738282,0.54609 -0.198439,0.23751 -0.34922,0.52657 -0.452343,0.86719 -0.103127,0.34063 -0.154689,0.725 -0.154688,1.15312 -10e-7,0.40626 0.04297,0.77813 0.128906,1.11563 0.08594,0.3375 0.222655,0.62813 0.410157,0.87187 0.187497,0.24376 0.429685,0.43282 0.726562,0.56719 0.296872,0.13438 0.654684,0.20157 1.073438,0.20156 0.137496,1e-5 0.263277,-0.004 0.377344,-0.0117 0.114058,-0.008 0.219526,-0.018 0.316406,-0.0305 0.09687,-0.0125 0.188276,-0.0273 0.274219,-0.0445 0.08593,-0.0172 0.169526,-0.0336 0.250781,-0.0492 l 0,-2.04375 -1.401563,0 z"
       style="font-size:9.60000038px;text-align:end;text-anchor:end"
       id="path3313" />
    <path
       d="m 96.709516,151.46445 -1.007812,0 -3.370313,-5.67188 -0.0375,0 c 0.01875,0.24063 0.03437,0.47969 0.04687,0.71719 0.0125,0.20313 0.02266,0.41563 0.03047,0.6375 0.0078,0.22188 0.01172,0.42188 0.01172,0.6 l 0,3.71719 -0.80625,0 0,-6.85313 0.998437,0 3.35625,5.64375 0.03281,0 c -0.0094,-0.2375 -0.02032,-0.47187 -0.03281,-0.70312 -0.0031,-0.1 -0.007,-0.20234 -0.01172,-0.30703 -0.0047,-0.10469 -0.0094,-0.20938 -0.01406,-0.31407 -0.0047,-0.10468 -0.0078,-0.20546 -0.0094,-0.30234 -0.0016,-0.0969 -0.0023,-0.18594 -0.0023,-0.26719 l 0,-3.75 0.815625,0 z"
       style="font-size:9.60000038px;text-align:end;text-anchor:end"
       id="path3315" />
    <path
       d="m 103.61889,147.97226 c 0,0.57813 -0.075,1.08516 -0.225,1.52109 -0.15,0.43594 -0.36719,0.8 -0.65156,1.09219 -0.28438,0.29219 -0.6336,0.51172 -1.04766,0.65859 -0.41406,0.14688 -0.88359,0.22032 -1.40859,0.22032 l -1.715626,0 0,-6.85313 1.907816,0 c 0.47812,1e-5 0.91093,0.0719 1.29843,0.21563 0.3875,0.14375 0.71719,0.35703 0.98907,0.63984 0.27187,0.28282 0.48202,0.6336 0.63047,1.05234 0.14843,0.41876 0.22265,0.90313 0.22265,1.45313 z m -0.92344,0.0281 c 0,-0.45624 -0.0516,-0.85077 -0.15468,-1.18359 -0.10313,-0.33281 -0.25313,-0.60703 -0.45,-0.82266 -0.19688,-0.21562 -0.43907,-0.37577 -0.72657,-0.48046 -0.2875,-0.10469 -0.61406,-0.15703 -0.97968,-0.15704 l -0.942191,0 0,5.35782 0.759371,0 c 0.825,0 1.44687,-0.22813 1.86563,-0.68438 0.41874,-0.45625 0.62812,-1.13281 0.62812,-2.02969 z"
       style="font-size:9.60000038px;text-align:end;text-anchor:end"
       id="path3317" />
  </g>
  <g
     style="font-size:7.19999981px;font-style:normal;font-variant:normal;font-weight:normal;font-stretch:normal;line-height:125%;letter-spacing:0px;word-spacing:0px;fill:#000000;fill-opacity:1;stroke:none;font-family:Droid Sans;-inkscape-font-specification:Droid Sans"
     id="text3295">
    <path
       d="m 90.104829,167.45444 c -5e-6,0.22813 -0.03594,0.43594 -0.107813,0.62343 -0.07188,0.18751 -0.17266,0.35001 -0.302343,0.4875 -0.129692,0.13751 -0.28516,0.25079 -0.466407,0.33985 -0.181253,0.0891 -0.382815,0.15235 -0.604687,0.18984 l 0,0.0281 c 0.553121,0.0687 0.973433,0.24453 1.260937,0.52734 0.287496,0.28282 0.431246,0.65078 0.43125,1.10391 -4e-6,0.3 -0.05079,0.575 -0.152343,0.825 -0.101567,0.25 -0.255473,0.46562 -0.461719,0.64687 -0.206254,0.18125 -0.467191,0.32188 -0.782813,0.42188 -0.315628,0.1 -0.689065,0.15 -1.120312,0.15 -0.340627,0 -0.661721,-0.0266 -0.963282,-0.0797 -0.301563,-0.0531 -0.585156,-0.15 -0.850781,-0.29063 l 0,-0.79687 c 0.271875,0.14375 0.566406,0.25469 0.883594,0.33281 0.317186,0.0781 0.621092,0.11719 0.911719,0.11719 0.287497,0 0.535935,-0.0312 0.745312,-0.0937 0.209372,-0.0625 0.382028,-0.15156 0.517969,-0.26719 0.135934,-0.11562 0.235934,-0.25781 0.3,-0.42656 0.06406,-0.16875 0.09609,-0.35781 0.09609,-0.56719 -4e-6,-0.2125 -0.04141,-0.39453 -0.124219,-0.54609 -0.08282,-0.15156 -0.200785,-0.27656 -0.353906,-0.375 -0.153128,-0.0984 -0.339847,-0.17109 -0.560156,-0.21797 -0.220316,-0.0469 -0.469534,-0.0703 -0.747657,-0.0703 l -0.623437,0 0,-0.70782 0.623437,0 c 0.253123,1e-5 0.478123,-0.0312 0.675,-0.0937 0.196872,-0.0625 0.361716,-0.15155 0.494532,-0.26718 0.132809,-0.11562 0.23359,-0.25312 0.302343,-0.4125 0.06875,-0.15937 0.103122,-0.33437 0.103125,-0.525 -3e-6,-0.1625 -0.02813,-0.30781 -0.08438,-0.43594 -0.05625,-0.12812 -0.135941,-0.23671 -0.239062,-0.32578 -0.103128,-0.0891 -0.226566,-0.15703 -0.370313,-0.20391 -0.143753,-0.0469 -0.303127,-0.0703 -0.478125,-0.0703 -0.334377,1e-5 -0.628908,0.0523 -0.883594,0.15703 -0.254688,0.10469 -0.497657,0.24141 -0.728906,0.41016 l -0.43125,-0.58594 c 0.11875,-0.0969 0.250781,-0.18749 0.396094,-0.27188 0.145312,-0.0844 0.303905,-0.15858 0.475781,-0.22265 0.171874,-0.0641 0.355467,-0.11484 0.550781,-0.15235 0.195311,-0.0375 0.402342,-0.0562 0.621094,-0.0563 0.337497,1e-5 0.633591,0.0422 0.888282,0.12657 0.254683,0.0844 0.467965,0.20235 0.639843,0.3539 0.171871,0.15157 0.301559,0.33126 0.389063,0.53907 0.0875,0.20781 0.131245,0.43516 0.13125,0.68203 z"
       style="font-size:9.60000038px;text-align:end;text-anchor:end"
       id="path3304" />
    <path
       d="m 91.576704,172.18412 c -1e-6,-0.11874 0.01562,-0.21953 0.04687,-0.30234 0.03125,-0.0828 0.07344,-0.15 0.126563,-0.20156 0.05312,-0.0516 0.115624,-0.0891 0.1875,-0.1125 0.07187,-0.0234 0.149998,-0.0352 0.234375,-0.0352 0.08125,0 0.158592,0.0117 0.232031,0.0352 0.07344,0.0234 0.136717,0.0609 0.189844,0.1125 0.05312,0.0516 0.09531,0.11875 0.126562,0.20156 0.03125,0.0828 0.04687,0.1836 0.04687,0.30234 -2e-6,0.11563 -0.01563,0.21485 -0.04687,0.29766 -0.03125,0.0828 -0.07344,0.15078 -0.126562,0.20391 -0.05313,0.0531 -0.116408,0.0922 -0.189844,0.11718 -0.07344,0.025 -0.150783,0.0375 -0.232031,0.0375 -0.08438,0 -0.162502,-0.0125 -0.234375,-0.0375 -0.07188,-0.025 -0.134376,-0.0641 -0.1875,-0.11718 -0.05313,-0.0531 -0.09531,-0.1211 -0.126563,-0.20391 -0.03125,-0.0828 -0.04688,-0.18203 -0.04687,-0.29766 z"
       style="font-size:9.60000038px;text-align:end;text-anchor:end"
       id="path3306" />
    <path
       d="m 97.96108,167.45444 c -5e-6,0.22813 -0.03594,0.43594 -0.107813,0.62343 -0.07188,0.18751 -0.17266,0.35001 -0.302344,0.4875 -0.129691,0.13751 -0.28516,0.25079 -0.466406,0.33985 -0.181253,0.0891 -0.382816,0.15235 -0.604687,0.18984 l 0,0.0281 c 0.553121,0.0687 0.973433,0.24453 1.260937,0.52734 0.287496,0.28282 0.431245,0.65078 0.43125,1.10391 -5e-6,0.3 -0.05079,0.575 -0.152344,0.825 -0.101567,0.25 -0.255473,0.46562 -0.461718,0.64687 -0.206254,0.18125 -0.467192,0.32188 -0.782813,0.42188 -0.315628,0.1 -0.689065,0.15 -1.120312,0.15 -0.340627,0 -0.661721,-0.0266 -0.963282,-0.0797 -0.301563,-0.0531 -0.585157,-0.15 -0.850781,-0.29063 l 0,-0.79687 c 0.271874,0.14375 0.566405,0.25469 0.883594,0.33281 0.317186,0.0781 0.621092,0.11719 0.911719,0.11719 0.287497,0 0.535934,-0.0312 0.745312,-0.0937 0.209372,-0.0625 0.382028,-0.15156 0.517969,-0.26719 0.135934,-0.11562 0.235934,-0.25781 0.3,-0.42656 0.06406,-0.16875 0.09609,-0.35781 0.09609,-0.56719 -4e-6,-0.2125 -0.04141,-0.39453 -0.124219,-0.54609 -0.08282,-0.15156 -0.200785,-0.27656 -0.353906,-0.375 -0.153129,-0.0984 -0.339847,-0.17109 -0.560157,-0.21797 -0.220315,-0.0469 -0.469533,-0.0703 -0.747656,-0.0703 l -0.623438,0 0,-0.70782 0.623438,0 c 0.253123,1e-5 0.478122,-0.0312 0.675,-0.0937 0.196872,-0.0625 0.361716,-0.15155 0.494531,-0.26718 0.132809,-0.11562 0.233591,-0.25312 0.302344,-0.4125 0.06875,-0.15937 0.103121,-0.33437 0.103125,-0.525 -4e-6,-0.1625 -0.02813,-0.30781 -0.08438,-0.43594 -0.05625,-0.12812 -0.135941,-0.23671 -0.239062,-0.32578 -0.103129,-0.0891 -0.226566,-0.15703 -0.370313,-0.20391 -0.143753,-0.0469 -0.303128,-0.0703 -0.478125,-0.0703 -0.334377,1e-5 -0.628908,0.0523 -0.883594,0.15703 -0.254689,0.10469 -0.497657,0.24141 -0.728906,0.41016 l -0.43125,-0.58594 c 0.118749,-0.0969 0.250781,-0.18749 0.396094,-0.27188 0.145311,-0.0844 0.303905,-0.15858 0.475781,-0.22265 0.171874,-0.0641 0.355467,-0.11484 0.550781,-0.15235 0.195311,-0.0375 0.402342,-0.0562 0.621094,-0.0563 0.337497,1e-5 0.633591,0.0422 0.888281,0.12657 0.254684,0.0844 0.467965,0.20235 0.639844,0.3539 0.171871,0.15157 0.301558,0.33126 0.389063,0.53907 0.0875,0.20781 0.131245,0.43516 0.13125,0.68203 z"
       style="font-size:9.60000038px;text-align:end;text-anchor:end"
       id="path3308" />
    <path
       d="m 103.26733,165.85131 0.92813,0 -2.29219,6.85313 -0.87657,0 -2.282808,-6.85313 0.923438,0 1.38281,4.34531 c 0.0906,0.28438 0.16875,0.5586 0.23438,0.82266 0.0656,0.26406 0.12499,0.51172 0.17812,0.74297 0.0469,-0.23125 0.10625,-0.47891 0.17813,-0.74297 0.0719,-0.26406 0.15624,-0.54765 0.25312,-0.85078 z"
       style="font-size:9.60000038px;text-align:end;text-anchor:end"
       id="path3310" />
  </g>
</svg>
